PathFileType	3	(X/Y/Z)	C:\Users\koon_\Desktop\
DataRate	CameraRate	NumFrames	NumMarkers	Units	OrigDataRate	OrigDataStartFrame	OrigNumFrames
100.0	100.0	8	27	mm	100.0	1395	2788	
Frame#	Time	get:LFHD			get:RFHD			get:LBHD			get:RBHD			get:C7			get:T10			get:CLAV			get:STRN			get:RBAK			get:LSHO			get:LUPA			get:LELB			get:LFRA			get:LWRA			get:LWRB			get:LFIN			get:RSHO			get:RUPA			get:RELB			get:RFRA			get:RWRA			get:RWRB			get:RFIN			get:LASI			get:RASI			get:LPSI			get:RPSI			
		X1	Y1	Z1	X2	Y2	Z2	X3	Y3	Z3	X4	Y4	Z4	X5	Y5	Z5	X6	Y6	Z6	X7	Y7	Z7	X8	Y8	Z8	X9	Y9	Z9	X10	Y10	Z10	X11	Y11	Z11	X12	Y12	Z12	X13	Y13	Z13	X14	Y14	Z14	X15	Y15	Z15	X16	Y16	Z16	X17	Y17	Z17	X18	Y18	Z18	X19	Y19	Z19	X20	Y20	Z20	X21	Y21	Z21	X22	Y22	Z22	X23	Y23	Z23	X24	Y24	Z24	X25	Y25	Z25	X26	Y26	Z26	X27	Y27	Z27	
1395	13.94	5.2450104	1532.0986	54.993176	-141.02187	1523.7147	45.954929	11.471459	1536.1016	-83.250687	-139.77661	1521.0635	-88.585121	-42.196716	1338.1239	-133.34418	-9.2572412	1132.5554	-199.49585	-31.226107	1217.5879	42.807686	-16.565863	1058.9596	60.022091	-125.52516	1259.7086	-166.85468	119.01445	1342.8522	-50.067741	177.64516	1128.7635	-18.544868	218.22678	1022.6478	-85.868813	187.9631	957.5705	-16.788134	148.23894	788.58484	-16.337002	221.30708	787.70618	-29.358109	198.72574	716.3252	-2.911629	-181.1183	1313.5237	-34.046364	-242.91847	1182.7601	-33.93359	-261.90485	977.96759	-124.42766	-219.77626	833.58466	-59.903484	-203.76682	741.78998	-60.356865	-260.79297	750.50055	-106.54056	-242.65395	674.95331	-58.4697	131.66711	895.3587	-35.619545	-158.09273	904.97626	-44.569824	47.679245	950.26862	-219.52379	-40.181839	948.52942	-227.02292
1396	13.95	8.0933027	1532.1587	55.428261	-138.19095	1524.4675	46.549644	14.14186	1535.4873	-82.922073	-137.21272	1521.2275	-87.828735	-40.74567	1338.2271	-132.07065	-8.8030338	1132.7598	-198.90604	-29.837072	1217.3546	43.692036	-15.795143	1058.5721	60.418629	-124.46213	1260.3524	-165.64706	120.7167	1342.2031	-49.30695	178.90474	1127.8289	-18.395058	218.85423	1021.7767	-86.21817	189.02684	956.63666	-17.16238	149.01933	787.64215	-16.750063	221.96114	786.76611	-30.237198	199.48781	715.35321	-3.7437179	-179.53258	1314.0962	-32.427025	-241.60788	1183.4894	-32.592545	-261.10101	978.92114	-123.56583	-218.75565	834.36823	-59.539013	-202.83206	742.52728	-60.622211	-260.03748	751.43042	-106.2898	-241.95607	675.86151	-58.531593	131.87997	895.18994	-36.127884	-157.81874	904.9635	-44.659321	47.705379	950.35394	-219.82993	-40.213165	948.68671	-227.15059
1397	13.96	10.844682	1532.1981	55.960457	-135.51395	1525.1373	47.355316	16.695683	1534.8561	-82.434418	-134.72665	1521.2278	-86.873497	-39.277176	1338.4312	-130.91866	-8.3047009	1133.0182	-198.24431	-28.440353	1217.0239	44.620197	-15.003477	1058.1344	60.667439	-123.45938	1260.9265	-164.19034	122.40617	1341.4855	-48.374924	179.98262	1126.9131	-18.085228	219.46352	1020.9424	-86.516197	189.97247	955.67627	-17.452681	149.77805	786.73279	-17.122623	222.63307	785.85559	-31.192133	200.30952	714.48108	-4.5160737	-177.97958	1314.6781	-30.838953	-240.38696	1184.1846	-31.239298	-259.87204	979.90112	-122.9725	-217.84213	835.07117	-59.445576	-201.97015	743.30676	-60.856129	-259.41721	752.33661	-106.26347	-241.30536	676.76202	-58.564556	132.06953	895.03961	-36.653316	-157.49692	904.92377	-44.765862	47.730679	950.49835	-220.18225	-40.190968	948.88434	-227.33006
1398	13.97	13.446635	1532.1919	56.608074	-132.87378	1525.7007	48.195045	19.190344	1534.1547	-81.809128	-132.32027	1521.1218	-85.802078	-37.833332	1338.5559	-129.48235	-7.8203073	1133.3325	-197.5719	-27.036772	1216.6499	45.661522	-14.25563	1057.6556	60.99435	-122.40427	1261.7405	-163.00868	124.02892	1340.7778	-47.209999	181.18253	1125.9634	-17.754118	220.12091	1020.1731	-86.77301	191.2063	954.72675	-17.541655	150.41846	785.91699	-18.337061	223.38278	784.9917	-31.964928	201.1725	713.55695	-5.3231993	-176.39824	1315.1302	-29.074924	-239.16154	1184.7881	-29.778423	-259.07996	980.85834	-122.15407	-216.93222	835.78033	-59.463711	-201.1815	744.02618	-61.02832	-258.74567	753.18115	-106.01965	-240.73248	677.60864	-58.833206	132.35194	894.89227	-37.143894	-157.25609	904.88654	-44.878384	47.765236	950.67157	-220.51088	-40.126598	949.14673	-227.59612
1399	13.98	16.054729	1532.1764	57.373585	-130.34975	1526.2238	49.160534	21.585783	1533.3969	-81.018257	-129.94815	1521.0725	-85.038841	-36.349236	1338.7802	-127.98139	-7.3489285	1133.7703	-196.98125	-25.696011	1216.115	46.820316	-13.482395	1057.0394	61.427357	-121.39877	1262.4574	-161.4938	125.61169	1340.0244	-45.969646	182.31808	1125.0366	-17.263065	220.80322	1019.3754	-86.94899	192.13931	953.82697	-17.801367	151.39412	785.03455	-18.5879	224.1498	784.06567	-32.807468	202.14099	712.63977	-6.2130079	-174.86349	1315.5659	-27.068907	-237.97189	1185.3418	-28.258772	-258.73642	981.78497	-121.22017	-216.14957	836.42914	-59.239529	-200.54254	744.68317	-61.340775	-258.25406	754.17572	-106.5874	-240.30299	678.39948	-59.225071	132.59312	894.71503	-37.598286	-157.06654	904.82147	-45.107147	47.846375	950.89893	-220.87965	-40.09684	949.42371	-227.85664
1400	13.99	18.553755	1532.0894	58.30756	-127.98441	1526.6763	50.317413	23.881721	1532.6182	-80.126236	-127.70928	1520.8662	-83.998322	-34.9884	1338.9187	-126.27278	-6.846777	1134.1776	-196.1918	-24.454967	1215.5862	47.980629	-12.748636	1056.3282	61.799015	-120.48231	1263.0964	-159.78297	127.1704	1339.2914	-44.459229	183.39363	1124.0309	-16.644718	221.47189	1018.6017	-87.054741	193.23335	952.84442	-17.8892	152.51805	784.12549	-18.04088	225.01166	783.15594	-33.710068	203.13895	711.70496	-7.0182061	-173.42599	1316.0186	-25.370504	-236.83438	1185.8467	-26.716824	-257.96301	982.70203	-120.49279	-215.57408	837.02942	-59.395847	-200.07143	745.33136	-61.750153	-257.71326	754.99414	-106.65311	-239.94487	679.22321	-59.707932	132.85518	894.54718	-38.094608	-156.85327	904.72803	-45.39854	47.9552	951.17035	-221.291	-39.988052	949.66693	-228.03452
1401	14	20.93943	1531.9746	59.393257	-125.58673	1527.0261	51.650467	26.097271	1531.7465	-79.002151	-125.53926	1520.4828	-82.460907	-33.597748	1338.9963	-124.29646	-6.3936152	1134.6378	-195.35065	-23.114922	1214.932	49.34549	-12.044085	1055.5884	62.198357	-119.52061	1263.858	-158.10199	128.7157	1338.5082	-42.902435	184.50093	1123.031	-16.094326	222.19254	1017.8527	-87.109467	194.40459	951.83441	-18.00135	153.33476	783.24872	-19.092665	225.85706	782.1795	-34.580376	204.21503	710.70868	-7.9598389	-171.9512	1316.2714	-23.164566	-235.76302	1186.2745	-25.176821	-256.93008	983.59418	-119.92376	-214.93028	837.65564	-59.494045	-199.7131	745.92932	-62.193439	-257.27573	755.79144	-106.829	-239.75912	679.96381	-60.344776	133.08969	894.37274	-38.630913	-156.60187	904.66522	-45.662514	48.039082	951.42346	-221.51955	-39.88488	950.0827	-228.38652
1402	14.01	23.267298	1531.8625	60.675072	-123.28178	1527.2827	53.121033	28.215368	1530.8701	-77.775902	-123.35932	1520.1276	-81.143906	-32.25032	1339.1987	-122.31843	-5.8243737	1135.1339	-194.47545	-21.89212	1214.2024	50.701454	-11.305296	1054.7207	62.555908	-118.55809	1264.5665	-156.17429	130.22525	1337.6901	-41.0844	185.58455	1121.9399	-15.361705	222.90707	1017.0457	-87.062416	195.60899	950.80823	-17.98897	154.64146	782.24896	-18.690765	226.79509	781.27893	-35.476841	205.32513	709.65198	-8.9233303	-170.55379	1316.5439	-20.990423	-234.6644	1186.6943	-23.389414	-256.60681	984.51563	-119.14625	-214.45306	838.26288	-59.514153	-199.42035	746.55975	-62.439415	-256.90778	756.66901	-107.37518	-239.62163	680.61725	-61.074924	133.33078	894.1701	-39.175636	-156.33511	904.59955	-45.946167	48.202488	951.71796	-221.83261	-39.762787	950.36951	-228.55162
